<svg width="64" height="64" viewBox="0 0 64 64" fill="none" xmlns="http://www.w3.org/2000/svg">
<rect width="64" height="64" fill="url(#paint0_linear_27_1891)"/>
<path d="M34.2977 5.96436C37.7255 5.96436 41.1534 5.96436 44.6851 5.96436C44.6865 9.96069 44.6865 9.96069 44.6868 11.2126C44.6869 11.2568 44.6869 11.301 44.6869 11.3466C44.6873 12.836 44.6877 14.3255 44.688 15.8149C44.688 15.8635 44.688 15.9121 44.688 15.9622C44.6882 17.0189 44.6884 18.0756 44.6885 19.1323C44.6886 19.6506 44.6887 20.1688 44.6888 20.687C44.6888 20.7644 44.6888 20.7644 44.6888 20.8433C44.6891 22.5139 44.6896 24.1846 44.6902 25.8552C44.6909 27.5724 44.6913 29.2896 44.6914 31.0069C44.6914 31.2496 44.6915 31.4923 44.6915 31.735C44.6915 31.7827 44.6915 31.8305 44.6915 31.8797C44.6916 32.6477 44.6919 33.4157 44.6923 34.1838C44.6927 34.9564 44.6928 35.7291 44.6927 36.5017C44.6927 36.9201 44.6928 37.3386 44.6931 37.757C44.6934 38.1404 44.6935 38.5238 44.6932 38.9072C44.6932 39.0455 44.6933 39.1839 44.6935 39.3223C44.695 40.3861 44.6545 41.4117 44.4506 42.4586C44.442 42.5028 44.4334 42.547 44.4246 42.5925C43.8866 45.3294 42.7744 48.0426 41.0663 50.2617C41.0272 50.3129 40.9882 50.364 40.948 50.4167C40.8321 50.567 40.7148 50.716 40.5972 50.8649C40.5575 50.9163 40.5179 50.9677 40.477 51.0206C39.6735 52.0494 38.7453 53.0114 37.7155 53.8136C37.6488 53.8664 37.5821 53.9193 37.5134 53.9738C34.8091 56.1029 31.5606 57.5471 28.1322 57.9685C28.0783 57.9754 28.0244 57.9823 27.9689 57.9895C23.9727 58.4828 20.0261 57.6778 16.4715 55.824C15.4983 55.3007 14.5899 54.7004 13.7239 54.0146C13.6821 53.9816 13.6403 53.9485 13.5973 53.9144C12.4614 53.0006 11.2987 51.9037 10.4541 50.7111C10.3642 50.5842 10.2719 50.4593 10.1796 50.3343C8.93012 48.6235 8.02975 46.7721 7.35738 44.7665C7.33379 44.6973 7.31021 44.6281 7.28591 44.5568C6.99531 43.6987 6.81536 42.8378 6.67465 41.9434C6.66347 41.8732 6.65228 41.803 6.64075 41.7307C6.07603 37.9874 6.67196 34.0136 8.35424 30.6219C8.60775 30.1219 8.87835 29.6325 9.1668 29.1518C9.21032 29.0788 9.21032 29.0788 9.25473 29.0044C9.68046 28.2956 10.1396 27.6408 10.6733 27.0091C10.8385 26.8264 10.8385 26.8264 10.9092 26.6722C10.9534 26.6722 10.9977 26.6722 11.0432 26.6722C11.0586 26.6356 11.074 26.599 11.0898 26.5612C11.5546 25.7263 12.5348 24.9225 13.2765 24.335C13.3915 24.2437 13.505 24.1503 13.6163 24.0544C15.9632 22.0438 18.999 20.7499 22.0087 20.1591C22.0614 20.1487 22.114 20.1383 22.1683 20.1276C23.2922 19.9185 24.3983 19.8765 25.5396 19.8785C25.6168 19.8785 25.694 19.8786 25.7736 19.8786C26.942 19.8811 28.0584 19.9292 29.2045 20.1717C29.2781 20.1864 29.3517 20.2011 29.4275 20.2163C31.1228 20.5588 32.7502 21.1403 34.2977 21.9141C34.2977 16.6507 34.2977 11.3873 34.2977 5.96436Z" fill="#FBFEFE"/>
<circle cx="25.5665" cy="39.5726" r="8.41047" fill="#593DB2"/>
<ellipse cx="53.4451" cy="52.2389" rx="5.66283" ry="5.86387" fill="white"/>
<defs>
<linearGradient id="paint0_linear_27_1891" x1="31.9665" y1="-6.76859" x2="32" y2="64" gradientUnits="userSpaceOnUse">
<stop stop-color="#8C67FF"/>
<stop offset="1" stop-color="#2B1C58"/>
</linearGradient>
</defs>
</svg>
